# xmcd
#
# Track frame offsets: 
#        150
#        15563
#        39263
#        57361
#        76576
#        89536
#        104808
#        127520
#        144133
#        161961
#        176504
#        187192
#
# Disc length: 2718 seconds
#
# Revision: 0
# Processed by: cddbd v1.5.2PL0 Copyright (c) Steve Scherf et al.
# Submitted via: ExactAudioCopyFreeDBPlugin 1.0
#
DISCID=930a9c0c
DTITLE=Guirtarras de la Luna - Guitarras Magicas Vol 2
DYEAR=2004
DGENRE=Instrumental
TTITLE0=Ven Devórame otra Vez
TTITLE1=Debo Hacerlo
TTITLE2=Concierto de Aranjuez
TTITLE3=Granada
TTITLE4=Moliendo Café
TTITLE5=El Hotel de Adán
TTITLE6=Amor Eterno
TTITLE7=La Bomba
TTITLE8=Danza Ritual del Fuego
TTITLE9=Mía
TTITLE10=No Vale la Pena
TTITLE11=España Cañí
EXTD=
EXTT0=
EXTT1=
EXTT2=
EXTT3=
EXTT4=
EXTT5=
EXTT6=
EXTT7=
EXTT8=
EXTT9=
EXTT10=
EXTT11=
PLAYORDER=
